<?xml version="1.0" encoding="UTF-8"?>
<svg id="Layer_2" data-name="Layer 2" xmlns="http://www.w3.org/2000/svg" viewBox="0 0 114.02 113.11">
  <defs>
    <style>
      .cls-1 {
        fill: #77c36c;
      }

      .cls-2 {
        stroke: #94ce91;
        stroke-width: .7px;
      }

      .cls-2, .cls-3 {
        fill: none;
        stroke-dasharray: 8 3;
        stroke-miterlimit: 10;
      }

      .cls-4 {
        fill: #ed1c24;
      }

      .cls-3 {
        stroke: #aad7ab;
        stroke-width: .4px;
      }

      .cls-5 {
        fill: #fff;
      }
    </style>
  </defs>
  <g id="Layer_1-2" data-name="Layer 1">
    <g>
      <path class="cls-1" d="M19.36,16.62c.38.51.27,4.25,0,4.97-1.34.82-3.6,1.71-6.79,1.71C4.8,23.3,0,18.06,0,11.65S4.8,0,12.58,0c3.19,0,5.45.89,6.79,1.71.27.72.38,4.46,0,4.97-2.4-1.47-4.49-2.12-6.48-2.12-4.01,0-7.3,2.67-7.3,7.09s3.29,7.09,7.3,7.09c1.99,0,4.08-.65,6.48-2.12Z"/>
      <path class="cls-1" d="M38.11,22.79h-14.67V.51c1.58-.27,3.91-.27,5.48,0v17.72h9.18c.27,1.58.27,2.98,0,4.56Z"/>
      <path class="cls-1" d="M40.95,22.79V.51c1.58-.27,3.91-.27,5.48,0v22.28c-1.58.27-3.91.27-5.48,0Z"/>
      <path class="cls-1" d="M68.88,16.62c.38.51.27,4.25,0,4.97-1.34.82-3.6,1.71-6.79,1.71-7.78,0-12.58-5.24-12.58-11.65S54.32,0,62.1,0c3.19,0,5.45.89,6.79,1.71.27.72.38,4.46,0,4.97-2.4-1.47-4.49-2.12-6.48-2.12-4.01,0-7.3,2.67-7.3,7.09s3.29,7.09,7.3,7.09c1.99,0,4.08-.65,6.48-2.12Z"/>
      <path class="cls-1" d="M86.12,22.79l-7.68-10.69v10.69c-1.58.27-3.91.27-5.48,0V.51c1.58-.27,3.91-.27,5.48,0v10.08l7.4-10.08c1.58-.27,4.9-.27,6.48,0l-8.02,10.83,8.29,11.45c-1.58.27-4.9.27-6.48,0Z"/>
      <path class="cls-1" d="M93.86,20.43c0-1.71,1.37-2.91,3.08-2.91s3.08,1.2,3.08,2.91-1.37,2.88-3.08,2.88-3.08-1.2-3.08-2.88Z"/>
    </g>
    <g>
      <path class="cls-1" d="M17.83,30.52c.27.82.38,4.73,0,5.21-2.5-1.47-4.46-2.37-6.13-2.37-1.54,0-2.54.75-2.54,2.06,0,1.41,1.23,1.82,3.98,2.67,2.74.86,6.31,2.33,6.31,6.96s-3.67,7.06-8.19,7.06c-2.43,0-5-.68-6.72-1.71-.27-.72-.38-4.73,0-5.21,2.5,1.47,4.56,2.37,6.51,2.37s2.84-.89,2.84-2.09c0-1.34-1.03-1.71-4.11-2.71-2.71-.89-6.17-2.5-6.17-6.79,0-3.87,2.84-7.16,8.05-7.16,2.61,0,4.66.82,6.17,1.71Z"/>
      <path class="cls-1" d="M37.5,51.59l-1.58-4.22h-8.16l-1.58,4.22c-1.58.27-4.08.27-5.66,0l9.05-22.28c1.58-.27,2.95-.27,4.52,0l9.05,22.28c-1.58.27-4.08.27-5.65,0ZM29.48,42.75h4.73l-2.37-6.38-2.36,6.38Z"/>
      <path class="cls-1" d="M62.99,29.32l-8.88,22.28c-1.58.27-2.95.27-4.52,0l-8.88-22.28c1.58-.27,4.08-.27,5.66,0l5.48,14.09,5.48-14.09c1.58-.27,4.08-.27,5.65,0Z"/>
      <path class="cls-1" d="M81.16,51.59h-15.53v-22.28h15.53c.27,1.58.27,2.98,0,4.56h-10.04v4.18h8.88c.27,1.58.27,2.98,0,4.56h-8.88v4.42h10.04c.27,1.58.27,2.98,0,4.56Z"/>
      <path class="cls-1" d="M82.73,49.23c0-1.71,1.37-2.91,3.08-2.91s3.08,1.2,3.08,2.91-1.37,2.88-3.08,2.88-3.08-1.2-3.08-2.88Z"/>
    </g>
    <path class="cls-1" d="M16.72,60.61c.27.82.38,4.73,0,5.21-2.5-1.47-4.46-2.37-6.13-2.37-1.54,0-2.54.75-2.54,2.06,0,1.41,1.23,1.82,3.98,2.67,2.74.86,6.31,2.33,6.31,6.96s-3.67,7.06-8.19,7.06c-2.43,0-5-.68-6.72-1.71-.27-.72-.38-4.73,0-5.21,2.5,1.47,4.56,2.37,6.51,2.37s2.84-.89,2.84-2.09c0-1.34-1.03-1.71-4.11-2.71-2.71-.89-6.17-2.5-6.17-6.79,0-3.87,2.84-7.16,8.05-7.16,2.61,0,4.66.82,6.17,1.71Z"/>
    <path class="cls-1" d="M41.6,59.41v22.28c-1.58.27-3.91.27-5.48,0v-8.98h-9.22v8.98c-1.58.27-3.91.27-5.48,0v-22.28c1.58-.27,3.91-.27,5.48,0v8.74h9.22v-8.74c1.58-.27,3.91-.27,5.48,0Z"/>
    <path class="cls-1" d="M68.33,70.55c0,6.41-4.76,11.65-11.82,11.65s-11.82-5.24-11.82-11.65,4.76-11.65,11.82-11.65,11.82,5.24,11.82,11.65ZM50.27,70.55c0,4.46,2.88,7.09,6.24,7.09s6.24-2.64,6.24-7.09-2.88-7.09-6.24-7.09-6.24,2.64-6.24,7.09Z"/>
    <path class="cls-1" d="M88.55,66.88c0,4.49-3.43,7.47-8.4,7.47h-3.25v7.33c-1.58.27-3.91.27-5.48,0v-22.28h8.74c4.97,0,8.4,2.98,8.4,7.47ZM82.96,66.88c0-2.02-1.3-2.91-2.81-2.91h-3.25v5.83h3.25c1.51,0,2.81-.89,2.81-2.91Z"/>
    <g>
      <path class="cls-4" d="M85.92,79.37c0-1.71,1.37-2.91,3.08-2.91s3.08,1.2,3.08,2.91-1.37,2.88-3.08,2.88-3.08-1.2-3.08-2.88Z"/>
      <circle class="cls-3" cx="89" cy="79.35" r="10"/>
      <circle class="cls-2" cx="89" cy="79.35" r="5"/>
    </g>
    <g>
      <g>
        <polygon class="cls-5" points="92.23 97.64 87.18 82.37 88.61 81.45 89.91 80.87 92.02 81.37 94.09 87.82 96.29 86.64 98.47 87.12 101.89 86.8 103.79 87.6 105.35 87.34 106.92 87.62 107.38 88.33 109.04 89.12 111.86 98.15 110.59 100.04 111.57 102.85 111.07 104.97 112.02 108.18 98.65 112.31 97.04 108.99 95.52 108.15 94.85 106.8 92.94 105.7 92.27 104.11 90.75 103.27 89.78 101.7 88.31 100.77 85.95 99.49 85.11 96.4 87.83 95.61 92.23 97.64"/>
        <g>
          <path d="M89.1,101.17c.5-.16.99-.32,1.49-.48.32.99.63,1.98.95,2.97-.5.16-.99.32-1.49.48-.32-.99-.63-1.98-.95-2.97Z"/>
          <path d="M90.82,80.97c.49-.16.99-.32,1.48-.48l1.9,5.94,2.97-.95c.16.49.31.99.48,1.48-.99.32-1.98.63-2.97.95l1.9,5.94-1.48.48c-1.43-4.45-2.86-8.91-4.28-13.36Z"/>
          <path d="M91.54,103.66c.5-.16.99-.32,1.49-.48.32.99.63,1.98.95,2.97-.5.16-.99.32-1.49.48-.32-.99-.63-1.98-.95-2.97Z"/>
          <path d="M109.47,88.09l3.33,10.39c-.49.16-.99.32-1.48.48-1.11-3.46-2.2-6.94-3.33-10.39.49-.16.99-.32,1.48-.48Z"/>
          <path d="M87.14,100.16c-.49.16-.99.32-1.48.48l-1.43-4.45,4.45-1.43c.16.49.32.99.48,1.48-.99.32-1.98.63-2.97.95.32.99.63,1.98.95,2.97Z"/>
          <path d="M106.03,87.56c.49-.16.99-.32,1.49-.48.16.49.31.99.48,1.49-.49.16-.99.32-1.49.48-.16-.49-.32-.99-.48-1.49Z"/>
          <path d="M111.32,98.96c.47,1.48.95,2.97,1.43,4.45-.49.16-.99.31-1.49.48-.48-1.48-.95-2.97-1.43-4.45.49-.16.99-.32,1.49-.48Z"/>
          <path d="M90.34,79.49l.48,1.48c-.99.31-1.98.63-2.97.95l-.48-1.48,2.97-.95Z"/>
          <path d="M102.58,87.03c.99-.32,1.98-.63,2.97-.95.16.49.32.99.48,1.49l-1.48.48,1.43,4.45-1.48.48c-.64-1.98-1.26-3.96-1.9-5.94Z"/>
          <path d="M93.97,106.16c.5-.16.99-.32,1.49-.48.32.99.63,1.98.95,2.97-.5.16-.99.32-1.49.48-.32-.99-.63-1.98-.95-2.97Z"/>
          <path d="M97.65,86.97c1.48-.48,2.97-.95,4.45-1.43.16.49.31.99.48,1.49l-2.97.95,1.43,4.45-1.48.48c-.64-1.98-1.26-3.96-1.9-5.94Z"/>
          <path d="M87.85,81.92l5.23,16.33-1.48.48-.48-1.48-1.48.48c-.16-.49-.32-.99-.48-1.48.49-.16.99-.32,1.48-.48l-4.28-13.36c.49-.16.99-.31,1.48-.48Z"/>
          <path d="M96.41,108.65c.49-.16.99-.32,1.48-.48l.95,2.97,11.88-3.81-.95-2.97c.49-.16.99-.32,1.48-.48l1.43,4.45-14.85,4.76c-.48-1.48-.95-2.97-1.43-4.45Z"/>
          <path d="M87.14,100.16c.5-.16.99-.32,1.49-.48.16.49.31.99.48,1.49-.5.16-.99.32-1.49.48-.16-.49-.31-.99-.48-1.49Z"/>
        </g>
      </g>
      <g>
        <polygon class="cls-5" points="93.45 97.07 88.4 81.81 89.82 80.88 91.12 80.31 93.24 80.8 95.3 87.25 97.51 86.08 99.69 86.55 103.11 86.24 105 87.04 106.56 86.77 108.14 87.05 108.6 87.76 110.26 88.56 113.07 97.58 111.8 99.48 112.78 102.29 112.29 104.4 113.24 107.61 99.87 111.74 98.26 108.43 96.74 107.59 96.07 106.24 94.15 105.13 93.49 103.55 91.97 102.71 91 101.14 89.53 100.2 87.16 98.93 86.33 95.84 89.05 95.04 93.45 97.07"/>
        <g>
          <path d="M90.32,100.61c.5-.16.99-.32,1.49-.48.32.99.63,1.98.95,2.97-.5.16-.99.32-1.49.48-.32-.99-.63-1.98-.95-2.97Z"/>
          <path d="M92.03,80.41c.49-.16.99-.32,1.48-.48l1.9,5.94,2.97-.95c.16.49.31.99.48,1.48-.99.32-1.98.63-2.97.95l1.9,5.94-1.48.48c-1.43-4.45-2.86-8.91-4.28-13.36Z"/>
          <path d="M92.75,103.1c.5-.16.99-.32,1.49-.48.32.99.63,1.98.95,2.97-.5.16-.99.32-1.49.48-.32-.99-.63-1.98-.95-2.97Z"/>
          <path d="M110.69,87.53l3.33,10.39c-.49.16-.99.32-1.48.48-1.11-3.46-2.2-6.94-3.33-10.39.49-.16.99-.32,1.48-.48Z"/>
          <path d="M88.36,99.6c-.49.16-.99.32-1.48.48l-1.43-4.45,4.45-1.43c.16.49.32.99.48,1.48-.99.32-1.98.63-2.97.95.32.99.63,1.98.95,2.97Z"/>
          <path d="M107.24,87c.49-.16.99-.32,1.49-.48.16.49.31.99.48,1.49-.49.16-.99.32-1.49.48-.16-.49-.32-.99-.48-1.49Z"/>
          <path d="M112.53,98.4c.47,1.48.95,2.97,1.43,4.45-.49.16-.99.31-1.49.48-.48-1.48-.95-2.97-1.43-4.45.49-.16.99-.32,1.49-.48Z"/>
          <path d="M91.56,78.92l.48,1.48c-.99.31-1.98.63-2.97.95l-.48-1.48,2.97-.95Z"/>
          <path d="M103.8,86.46c.99-.32,1.98-.63,2.97-.95.16.49.32.99.48,1.49l-1.48.48,1.43,4.45-1.48.48c-.64-1.98-1.26-3.96-1.9-5.94Z"/>
          <path d="M95.19,105.59c.5-.16.99-.32,1.49-.48.32.99.63,1.98.95,2.97-.5.16-.99.32-1.49.48-.32-.99-.63-1.98-.95-2.97Z"/>
          <path d="M98.87,86.41c1.48-.48,2.97-.95,4.45-1.43.16.49.31.99.48,1.49l-2.97.95,1.43,4.45-1.48.48c-.64-1.98-1.26-3.96-1.9-5.94Z"/>
          <path d="M89.06,81.36l5.23,16.33-1.48.48-.48-1.48-1.48.48c-.16-.49-.32-.99-.48-1.48.49-.16.99-.32,1.48-.48l-4.28-13.36c.49-.16.99-.31,1.48-.48Z"/>
          <path d="M97.63,108.09c.49-.16.99-.32,1.48-.48l.95,2.97,11.88-3.81-.95-2.97c.49-.16.99-.32,1.48-.48l1.43,4.45-14.85,4.76c-.48-1.48-.95-2.97-1.43-4.45Z"/>
          <path d="M88.36,99.6c.5-.16.99-.32,1.49-.48.16.49.31.99.48,1.49-.5.16-.99.32-1.49.48-.16-.49-.31-.99-.48-1.49Z"/>
        </g>
      </g>
    </g>
  </g>
</svg>